<svg xmlns="http://www.w3.org/2000/svg" width="231" height="50" viewBox="0 0 231 50" fill="none"><g clip-path="url(#clip0_564_29371)"><mask id="mask0_564_29371" style="mask-type:luminance" maskUnits="userSpaceOnUse" x="0" y="0" width="231" height="50"><path d="M231 0H0V50H231V0Z" fill="white"></path></mask><g mask="url(#mask0_564_29371)"><path d="M50.2617 6.79764L50.8366 0.458984H65.6335V8.09787L59.4908 7.97967C62.5016 10.7574 63.4397 14.998 63.4397 21.3514V29.7291H55.5571L55.6176 21.4548C55.7084 13.7716 54.725 9.45721 50.2617 6.79764Z" fill="#1F2A2E"></path></g><mask id="mask1_564_29371" style="mask-type:luminance" maskUnits="userSpaceOnUse" x="0" y="0" width="231" height="50"><path d="M231 0H0V50H231V0Z" fill="white"></path></mask><g mask="url(#mask1_564_29371)"><path d="M68.1738 29.6848L68.2343 21.9868C70.0953 22.3266 72.1227 22.4448 74.7855 22.4448C82.6681 22.4448 84.756 19.3272 84.756 14.7911C84.756 10.1517 82.6681 7.87624 77.1003 7.87624H68.4613V0.458984H78.2653C88.2358 0.458984 92.6537 5.09846 92.6537 14.4513C92.6537 23.8041 87.9029 30.1428 74.9065 30.1428C72.2437 30.1428 70.0953 30.0246 68.1738 29.6848Z" fill="#1F2A2E"></path></g><mask id="mask2_564_29371" style="mask-type:luminance" maskUnits="userSpaceOnUse" x="0" y="0" width="231" height="50"><path d="M231 0H0V50H231V0Z" fill="white"></path></mask><g mask="url(#mask2_564_29371)"><path d="M104.547 8.09787H95.3933L93.8047 0.458984H104.532C113.7 0.458984 116.711 3.23676 116.711 12.3532V29.7439H108.828V12.3532C108.844 9.05827 107.739 8.09787 104.547 8.09787Z" fill="#1F2A2E"></path></g><mask id="mask3_564_29371" style="mask-type:luminance" maskUnits="userSpaceOnUse" x="0" y="0" width="231" height="50"><path d="M231 0H0V50H231V0Z" fill="white"></path></mask><g mask="url(#mask3_564_29371)"><path d="M135.002 29.7429L135.471 22.1483C136.167 22.2665 137.271 22.37 137.967 22.37C142.673 22.3109 144.17 18.4102 144.17 14.5538C144.11 10.3132 141.795 7.63889 138.194 7.63889C134.487 7.63889 131.991 10.1359 131.234 15.854L129.434 29.7281H121.188L124.26 11.1998C123.216 7.68322 121.884 4.6247 119.963 1.52187V0.458038H128.254C129.131 1.97991 129.873 3.57565 130.463 5.27482C132.278 2.37884 135.456 0 140.04 0C147.227 0 151.932 4.97932 151.992 14.1105C151.932 21.8085 148.982 30.0236 138.83 30.0236C137.544 30.0236 136.212 29.9645 135.002 29.7429Z" fill="#1F2A2E"></path></g><path d="M155.064 0.458984V8.09787H174.264V29.7439H182.162V0.458984H155.064Z" fill="#1F2A2E"></path><path d="M164.066 13.4316H156.002V29.7437H164.066V13.4316Z" fill="#1F2A2E"></path><mask id="mask4_564_29371" style="mask-type:luminance" maskUnits="userSpaceOnUse" x="0" y="0" width="231" height="50"><path d="M231 0H0V50H231V0Z" fill="white"></path></mask><g mask="url(#mask4_564_29371)"><path d="M78.0383 15.0995C78.0383 16.4146 76.9489 17.4784 75.6024 17.4784C74.2559 17.4784 73.1816 16.4146 73.1816 15.0995C73.1816 13.7845 74.271 12.7207 75.6024 12.7207C76.9641 12.7207 78.0383 13.7845 78.0383 15.0995Z" fill="#F5CC52"></path></g><mask id="mask5_564_29371" style="mask-type:luminance" maskUnits="userSpaceOnUse" x="0" y="0" width="231" height="50"><path d="M231 0H0V50H231V0Z" fill="white"></path></mask><g mask="url(#mask5_564_29371)"><path d="M5.31055 10.5787H9.31991C11.4835 10.5787 12.2702 11.3027 12.2702 13.4599V18.1437H5.31055V10.5787ZM10.2428 16.2377V13.3712C10.2428 12.7063 9.94023 12.4699 9.31991 12.4699H7.32279V16.2377H10.2428ZM14.5094 12.5438H13.3898V10.5787H16.5519V18.1437H14.5094V12.5438ZM21.3934 12.5438H17.7169L17.7018 10.5639H24.3739V12.5438H23.4359L23.4208 18.1289H21.3934V12.5438ZM26.2652 12.5438H25.1607V10.5787H28.2925V15.5728H26.2652V12.5438ZM33.013 17.6413L34.7227 12.5438H29.7299V10.5787H36.9618V11.4652L35.1463 17.9664H33.013V17.6413ZM30.0476 13.9622H32.0901V20.227H30.0476V13.9622ZM39.8062 17.8334L41.9093 12.5586H37.8545V8.92383H39.9121V10.5787H44.3905V11.5686L42.0454 18.1437H39.8214V17.8334H39.8062Z" fill="#1F2A2E"></path></g><path d="M3.17673 23.5219H2.07227V21.542H5.20411V26.5361H3.17673V23.5219ZM6.65656 27.3488L7.67025 27.2897C7.98797 27.2601 8.27544 27.2453 8.53264 27.201C7.76103 25.5018 7.08019 23.6549 6.55065 21.7784V21.5568H8.77472C9.18322 23.3299 9.74302 25.1029 10.4087 26.7725C11.5132 26.2111 11.6645 25.1029 11.6796 23.123V21.5568H13.828L13.7826 23.3299C13.6919 27.4374 12.0579 28.9741 7.97284 29.2252L6.7776 29.2991L6.65656 27.3488ZM15.9008 23.5219H14.7812V21.542H17.9433V29.107H15.9008V23.5219ZM19.5168 27.1271H23.3295C21.8468 25.5757 20.4851 23.8618 19.2142 21.8966V21.542H21.5442C22.225 22.6059 22.921 23.6106 23.6926 24.5858C24.1465 24.2755 24.4642 23.6106 24.4491 22.7536L24.4188 21.542H26.6277L26.537 22.9309C26.4311 24.6153 25.6141 25.3541 24.7365 25.8417C25.3115 26.5066 25.9166 27.1271 26.5521 27.7329L26.3251 29.107H19.5168V27.1271ZM31.1818 28.6195L32.8914 23.5219H27.8986V21.542H35.1306V22.4286L33.3151 28.9297H31.1818V28.6195ZM28.2164 24.9404H30.2589V31.2052H28.2164V24.9404ZM39.9721 29.107L40.0932 27.1419C40.2747 27.1715 40.5622 27.201 40.7437 27.201C41.9541 27.1862 42.3475 26.1815 42.3475 25.1768C42.3324 24.0834 41.7272 23.389 40.8043 23.389C39.8511 23.389 39.2005 24.0391 39.0038 25.5166L38.5348 29.107H36.4015L37.1883 24.3198C36.9159 23.4185 36.5679 22.6206 36.0838 21.8228V21.542H38.2322C38.4592 21.941 38.6558 22.3399 38.8071 22.7832C39.2762 22.0296 40.0932 21.4238 41.2733 21.4238C43.1342 21.4238 44.3446 22.7093 44.3597 25.0734C44.3446 27.068 43.5881 29.1809 40.9556 29.1809C40.6378 29.1809 40.2898 29.1661 39.9721 29.107Z" fill="#1F2A2E"></path><mask id="mask6_564_29371" style="mask-type:luminance" maskUnits="userSpaceOnUse" x="0" y="0" width="231" height="50"><path d="M231 0H0V50H231V0Z" fill="white"></path></mask><g mask="url(#mask6_564_29371)"><path d="M3.63067 40.4115H1.11914V39.7318H3.63067C5.09825 39.7318 5.74882 40.2489 5.74882 41.9038V46.2034H5.03773V41.9038C5.03773 40.7217 4.6141 40.4115 3.63067 40.4115ZM11.8612 41.9038C11.2712 41.2389 10.666 40.574 10.0003 39.9091V39.7466H10.7719C11.7856 40.8399 12.7236 41.9038 13.586 42.9676C14.3274 42.6278 14.7964 41.8151 14.8569 40.7513L14.8872 39.7318H15.6285L15.568 40.707C15.4772 42.2584 14.751 42.9972 13.9491 43.4109C14.6451 44.2678 15.2805 45.1396 15.9008 46.0113V46.2034H15.1595C14.2517 44.8589 13.2985 43.6029 12.2243 42.3323C11.2106 42.8494 11.014 43.6916 10.9232 45.0657L10.8475 46.2034H10.1062L10.2121 44.8441C10.3029 43.1301 10.8173 42.48 11.8612 41.9038ZM19.4563 45.5237H23.4354V41.889C23.4354 40.707 23.0118 40.3967 22.0284 40.3967H19.5925V39.717H22.0284C23.4808 39.717 24.1465 40.2342 24.1465 41.889V45.5237H24.9635V46.2034H19.4714V45.5237H19.4563ZM39.2308 40.4115H37.9599V39.7318H39.9116V43.6768H39.2308V40.4115ZM45.9938 46.0557L48.0665 40.4115H43.8454V38.3281H44.5413V39.7466H48.8987V40.1159L46.6897 46.2034H45.9938V46.0557ZM52.8929 45.8193L53.7099 45.7306C54.1789 45.6715 54.5874 45.5976 54.9505 45.4942C54.2243 43.8541 53.483 41.9038 52.908 39.9239V39.7318H53.6191C54.1335 41.6083 54.8295 43.5882 55.586 45.3021C57.22 44.6372 57.5529 43.2927 57.568 41.0763V39.7318H58.2791L58.2488 41.2389C58.158 44.785 56.8569 45.9966 53.8158 46.3659L52.9534 46.4842L52.8929 45.8193ZM71.5781 45.5237H75.5572V41.889C75.5572 40.707 75.1335 40.3967 74.1501 40.3967H71.7142V39.717H74.1501C75.6026 39.717 76.2683 40.2342 76.2683 41.889V45.5237H77.0853V46.2034H71.5932V45.5237H71.5781ZM84.0147 45.8931L85.8908 40.4115H80.9736V39.7318H86.6926V40.1307L84.6804 46.0557H84.0601L84.0147 45.8931ZM81.4426 42.3618H82.1537V47.9912H81.4426V42.3618ZM90.6869 45.8193L91.5039 45.7306C91.9729 45.6715 92.3814 45.5976 92.7445 45.4942C92.0183 43.8541 91.2769 41.9038 90.702 39.9239V39.7318H91.4131C91.9275 41.6083 92.6235 43.5882 93.3799 45.3021C95.014 44.6372 95.3468 43.2927 95.3619 41.0763V39.7318H96.073L96.0428 41.2389C95.952 44.785 94.6508 45.9966 91.6098 46.3659L90.7323 46.4694L90.6869 45.8193ZM101.111 40.4115H99.8403V39.7318H101.792V43.6768H101.111V40.4115ZM115.167 46.2034L115.212 45.5237C115.379 45.5385 115.56 45.5533 115.742 45.5533C116.619 45.5533 116.846 45.0805 116.846 44.1792V40.4115H115.469V39.7318H122.036L122.02 46.2034H121.324V40.4115H117.527V44.2087C117.527 45.5829 116.967 46.2182 115.757 46.2182C115.545 46.233 115.348 46.2182 115.167 46.2034ZM127.331 40.4115H126.06V39.7318H128.012V43.6768H127.331V40.4115ZM131.961 45.5237H135.94V41.889C135.94 40.707 135.516 40.3967 134.533 40.3967H132.082V39.717H134.518C135.97 39.717 136.636 40.2342 136.636 41.889V45.5237H137.453V46.2034H131.961V45.5237ZM152.961 40.4115H150.449V39.7318H152.961C154.428 39.7318 155.079 40.2489 155.079 41.9038V46.2034H154.368V41.9038C154.383 40.7217 153.959 40.4115 152.961 40.4115ZM159.028 46.2182L159.073 45.5385C159.27 45.5681 159.451 45.5829 159.633 45.5829C160.707 45.5829 160.964 45.0953 160.964 44.2235V40.4262H159.376V39.7466H161.645V44.2531C161.645 45.5976 161.07 46.2477 159.663 46.2477C159.466 46.233 159.239 46.233 159.028 46.2182ZM166.85 40.4115H165.579V39.7318H167.531V43.6768H166.85V40.4115ZM174.641 46.233L174.687 45.5385C174.884 45.5681 175.065 45.5829 175.232 45.5829C176.85 45.5829 177.304 44.1644 177.304 42.7755C177.304 41.0911 176.457 40.308 175.292 40.308C173.915 40.308 173.325 41.3423 173.098 42.9676L172.644 46.2034H171.918L172.584 41.8447C172.312 41.0468 172.039 40.5001 171.585 39.8795V39.7318H172.296C172.614 40.175 172.841 40.5888 173.053 41.1355C173.431 40.2046 174.293 39.6284 175.353 39.6284C176.745 39.6284 177.985 40.4558 178 42.7607C178 44.4156 177.38 46.2477 175.232 46.2477C175.035 46.2477 174.838 46.233 174.641 46.233ZM182.191 42.8198C182.191 42.0515 182.327 41.2241 182.675 40.4115H181.737V39.7318H184.96C187.184 39.7318 188.167 40.6774 188.167 42.8937C188.167 44.9771 187.002 46.2921 185.141 46.2921C183.235 46.3068 182.191 44.8441 182.191 42.8198ZM185.202 45.6567C186.594 45.6567 187.502 44.5633 187.502 42.9085C187.502 41.3128 186.957 40.4115 184.945 40.4115H183.341C183.023 41.1946 182.857 41.8742 182.872 42.7607C182.887 44.6077 183.78 45.6567 185.202 45.6567ZM202.647 40.4115H201.376V39.7318H203.327V43.6768H202.647V40.4115ZM208.169 38.7862L207.957 41.5048H207.488L207.352 38.7862H208.169ZM208.895 38.7862H209.727L209.515 41.5048H209.046L208.895 38.7862ZM213.54 45.8193L214.357 45.7306C214.826 45.6715 215.234 45.5976 215.598 45.4942C214.871 43.8541 214.13 41.9038 213.555 39.9239V39.7318H214.266C214.781 41.6083 215.476 43.5882 216.233 45.3021C217.867 44.6372 218.2 43.2927 218.215 41.0763V39.7318H218.926L218.896 41.2389C218.805 44.785 217.504 45.9966 214.463 46.3659L213.585 46.4694L213.54 45.8193ZM223.616 46.1591L222.92 39.7318H223.647L223.979 43.2631C225.719 43.2188 226.234 42.4357 226.324 41.0468L226.4 39.7318H227.096L227.02 40.9729C226.854 43.0415 226.052 43.7064 224.055 43.8098L224.221 45.4942C224.569 45.5533 225.099 45.5829 225.462 45.5829C228.912 45.6715 229.32 43.5143 229.517 41.0468L229.638 39.7318H230.334L230.213 41.2389C229.925 44.5042 228.957 46.2773 225.629 46.2625C225.038 46.2625 224.252 46.233 223.616 46.1591Z" fill="#1F2A2E"></path></g><mask id="mask7_564_29371" style="mask-type:luminance" maskUnits="userSpaceOnUse" x="0" y="0" width="231" height="50"><path d="M231 0H0V50H231V0Z" fill="white"></path></mask><g mask="url(#mask7_564_29371)"><path d="M218.866 29.7277L230.077 13.9771L230.183 1.18164C230.183 1.18164 212.527 25.3247 212.391 25.3394L212.799 29.7425H218.866V29.7277Z" fill="#F5CC52"></path></g><mask id="mask8_564_29371" style="mask-type:luminance" maskUnits="userSpaceOnUse" x="0" y="0" width="231" height="50"><path d="M231 0H0V50H231V0Z" fill="white"></path></mask><g mask="url(#mask8_564_29371)"><path d="M218.064 29.7281L205.309 11.8203L199.787 18.4545C199.787 18.4545 203.327 22.5473 208.487 29.7281H218.064Z" fill="#FCB53D"></path></g><mask id="mask9_564_29371" style="mask-type:luminance" maskUnits="userSpaceOnUse" x="0" y="0" width="231" height="50"><path d="M231 0H0V50H231V0Z" fill="white"></path></mask><g mask="url(#mask9_564_29371)"><path d="M200.03 0.0304004L189.015 15.5889L188.713 28.5765C188.713 28.5765 206.369 4.43347 206.505 4.4187L206.097 0.015625H200.03V0.0304004Z" fill="#1F2A2E"></path></g><mask id="mask10_564_29371" style="mask-type:luminance" maskUnits="userSpaceOnUse" x="0" y="0" width="231" height="50"><path d="M231 0H0V50H231V0Z" fill="white"></path></mask><g mask="url(#mask10_564_29371)"><path d="M200.832 0.0292969L213.571 17.9371L219.094 11.3029C219.094 11.3029 215.553 7.21015 210.394 0.0292969H200.832Z" fill="#1F2A2E"></path></g></g><defs><clipPath id="clip0_564_29371"><rect width="231" height="50" fill="white"></rect></clipPath></defs></svg>